<svg width="35" height="35" viewBox="0 0 35 35" fill="none" xmlns="http://www.w3.org/2000/svg">
<rect width="35" height="35" rx="5" fill="#C3002F"/>
<path d="M10.2083 27.9167C9.63542 27.9167 9.14514 27.7128 8.7375 27.3052C8.32986 26.8976 8.12569 26.4069 8.125 25.8333V11.25C8.125 10.6771 8.32917 10.1868 8.7375 9.77916C9.14583 9.37153 9.63611 9.16736 10.2083 9.16666H11.25V8.125C11.25 7.82986 11.35 7.58264 11.55 7.38333C11.75 7.18403 11.9972 7.08403 12.2917 7.08333C12.5861 7.08264 12.8337 7.18264 13.0344 7.38333C13.2351 7.58403 13.3347 7.83125 13.3333 8.125V9.16666H21.6667V8.125C21.6667 7.82986 21.7667 7.58264 21.9667 7.38333C22.1667 7.18403 22.4139 7.08403 22.7083 7.08333C23.0028 7.08264 23.2503 7.18264 23.451 7.38333C23.6517 7.58403 23.7514 7.83125 23.75 8.125V9.16666H24.7917C25.3646 9.16666 25.8552 9.37083 26.2635 9.77916C26.6719 10.1875 26.8757 10.6778 26.875 11.25V25.8333C26.875 26.4062 26.6712 26.8969 26.2635 27.3052C25.8559 27.7135 25.3653 27.9174 24.7917 27.9167H10.2083ZM10.2083 25.8333H24.7917V15.4167H10.2083V25.8333Z" fill="white"/>
</svg>
